<?xml version="1.0" encoding="UTF-8" standalone="no"?>
<svg
   xmlns:dc="http://purl.org/dc/elements/1.1/"
   xmlns:cc="http://creativecommons.org/ns#"
   xmlns:rdf="http://www.w3.org/1999/02/22-rdf-syntax-ns#"
   xmlns:svg="http://www.w3.org/2000/svg"
   xmlns="http://www.w3.org/2000/svg"
   xmlns:xlink="http://www.w3.org/1999/xlink"
   version="1.1"
   id="svg2"
   viewBox="0 0 319.99997 319.99997"
   height="319.99997"
   width="319.99997">
  <defs
     id="defs4">
    <clipPath
       id="clipPath20"
       clipPathUnits="userSpaceOnUse">
      <path
         id="path18"
         d="m 0,0 0,2091 5010,0 0,-2091 z" />
    </clipPath>
    <clipPath
       id="clipPath26"
       clipPathUnits="userSpaceOnUse">
      <path
         id="path24"
         d="m 4980.41,1639.73 c 0,0 -29.18,204.85 -118.71,295.06 -113.54,118.39 -240.84,118.99 -299.2,125.91 -417.85,30.07 -1044.65,30.07 -1044.65,30.07 l -1.31,0 c 0,0 -626.81,0 -1044.66,-30.07 -58.38,-6.92 -185.63,-7.52 -299.2,-125.91 -89.54,-90.21 -118.68,-295.06 -118.68,-295.06 0,0 -29.86,-240.55 -29.86,-481.12 l 0,-225.528 c 0,-240.543 29.86,-481.094 29.86,-481.094 0,0 29.14,-204.84 118.68,-295.058 C 2286.25,38.5117 2435.49,42.2813 2501.93,29.8789 2740.82,7.05078 3517.19,0 3517.19,0 c 0,0 627.46,0.941406 1045.31,30.9883 58.36,6.9414 185.66,7.5234 299.2,125.9417 89.53,90.218 118.71,295.058 118.71,295.058 0,0 29.82,240.551 29.82,481.094 l 0,225.528 c 0,240.57 -29.82,481.12 -29.82,481.12 z" />
    </clipPath>
    <linearGradient
       id="linearGradient32"
       spreadMethod="pad"
       gradientTransform="matrix(-9.14e-5,-2090.78,-2090.78,9.14e-5,3329.69,2262.1986)"
       gradientUnits="userSpaceOnUse"
       y2="0"
       x2="1"
       y1="0"
       x1="0">
      <stop
         id="stop28"
         offset="0"
         style="stop-opacity:1;stop-color:#e42526" />
      <stop
         id="stop30"
         offset="1"
         style="stop-opacity:1;stop-color:#be1f26" />
    </linearGradient>
    <clipPath
       id="clipPath20-2"
       clipPathUnits="userSpaceOnUse">
      <path
         id="path18-4"
         d="m 0,0 0,2091 5010,0 0,-2091 z" />
    </clipPath>
    <clipPath
       id="clipPath26-0"
       clipPathUnits="userSpaceOnUse">
      <path
         id="path24-4"
         d="m 4980.41,1639.73 c 0,0 -29.18,204.85 -118.71,295.06 -113.54,118.39 -240.84,118.99 -299.2,125.91 -417.85,30.07 -1044.65,30.07 -1044.65,30.07 l -1.31,0 c 0,0 -626.81,0 -1044.66,-30.07 -58.38,-6.92 -185.63,-7.52 -299.2,-125.91 -89.54,-90.21 -118.68,-295.06 -118.68,-295.06 0,0 -29.86,-240.55 -29.86,-481.12 l 0,-225.528 c 0,-240.543 29.86,-481.094 29.86,-481.094 0,0 29.14,-204.84 118.68,-295.058 C 2286.25,38.5117 2435.49,42.2813 2501.93,29.8789 2740.82,7.05078 3517.19,0 3517.19,0 c 0,0 627.46,0.941406 1045.31,30.9883 58.36,6.9414 185.66,7.5234 299.2,125.9417 89.53,90.218 118.71,295.058 118.71,295.058 0,0 29.82,240.551 29.82,481.094 l 0,225.528 c 0,240.57 -29.82,481.12 -29.82,481.12 z" />
    </clipPath>
    <linearGradient
       id="linearGradient32-7"
       spreadMethod="pad"
       gradientTransform="matrix(-9.14e-5,-2090.78,-2090.78,9.14e-5,3517.19,2090.77)"
       gradientUnits="userSpaceOnUse"
       y2="0"
       x2="1"
       y1="0"
       x1="0">
      <stop
         id="stop28-9"
         offset="0"
         style="stop-opacity:1;stop-color:#e42526" />
      <stop
         id="stop30-8"
         offset="1"
         style="stop-opacity:1;stop-color:#be1f26" />
    </linearGradient>
    <linearGradient
       gradientTransform="matrix(3.235294,0,0,3.235294,718.68591,-1718.4362)"
       gradientUnits="userSpaceOnUse"
       y2="738.38818"
       x2="-89.038963"
       y1="654.93365"
       x1="-134.07793"
       id="linearGradient4244"
       xlink:href="#linearGradient32" />
  </defs>
  <metadata
     id="metadata7">
    <rdf:RDF>
      <cc:Work
         rdf:about="">
        <dc:format>image/svg+xml</dc:format>
        <dc:type
           rdf:resource="http://purl.org/dc/dcmitype/StillImage" />
        <dc:title></dc:title>
      </cc:Work>
    </rdf:RDF>
  </metadata>
  <g
     transform="translate(-214.90438,-363.32393)"
     id="layer1">
    <g
       transform="matrix(1.3333333,0,0,-1.3333333,-114.068,677.6876)"
       id="g10">
      <g
         transform="scale(0.1,0.1)"
         id="g12">
        <g
           id="g14">
          <g
             clip-path="url(#clipPath20)"
             id="g16">
            <g
               clip-path="url(#clipPath26)"
               id="g22" />
          </g>
        </g>
      </g>
    </g>
    <g
       transform="matrix(1.0181818,0,0,1.0181818,-3.9073586,-12.424091)"
       id="g4256">
      <circle
         style="opacity:1;fill:url(#linearGradient4244);fill-opacity:1;fill-rule:nonzero;stroke:none;stroke-width:10;stroke-linecap:round;stroke-linejoin:miter;stroke-miterlimit:4;stroke-dasharray:none;stroke-dashoffset:0;stroke-opacity:1"
         id="path4236"
         cx="372.04724"
         cy="526.18109"
         r="157.14285" />
      <path
         id="path4254"
         d="m 341.68884,417.25239 0,129.3164 -38.57031,0 68.92774,88.54102 68.92968,-88.54102 -38.57226,0 0,-129.3164 -60.71485,0 z"
         style="opacity:1;fill:#ffffff;fill-opacity:1;fill-rule:nonzero;stroke:none;stroke-width:10;stroke-linecap:round;stroke-linejoin:miter;stroke-miterlimit:4;stroke-dasharray:none;stroke-dashoffset:0;stroke-opacity:1" />
    </g>
  </g>
</svg>
